<svg version="1.1" id="Layer_1" xmlns="http://www.w3.org/2000/svg" xmlns:xlink="http://www.w3.org/1999/xlink" x="0px" y="0px"
	 width="100%" viewBox="0 0 1024 1024" enable-background="new 0 0 1024 1024" xml:space="preserve">
<path fill="#000000" opacity="1.000000" stroke="none" 
	d="
M328.664185,167.685425 
	C362.722565,127.031311 405.290283,100.535728 456.219269,87.379601 
	C478.107819,81.725281 500.363159,79.026535 522.981750,79.800819 
	C580.832703,81.781212 631.925049,101.341034 676.180542,138.734253 
	C678.978699,141.098495 678.862122,142.628937 676.357666,145.055939 
	C665.708191,155.376068 655.129944,165.772598 644.691650,176.305664 
	C642.055664,178.965591 640.252808,179.146301 637.210938,176.723862 
	C607.843506,153.336639 574.733215,138.494125 537.142212,135.238129 
	C466.132172,129.087509 407.940765,153.819550 364.195190,210.184174 
	C343.749420,236.527802 331.364716,266.905121 327.276672,300.233856 
	C321.010071,351.324097 333.927979,397.626160 362.984192,439.705353 
	C392.430634,482.349609 432.335052,510.585449 481.894318,525.228271 
	C500.333221,530.676208 519.255188,533.487671 538.507996,533.920410 
	C540.435913,533.963745 542.518127,533.425659 544.528137,535.072266 
	C542.954529,538.416321 539.427795,539.586304 536.861816,541.614319 
	C528.218750,548.445251 522.034485,556.964050 518.630188,567.328674 
	C517.301147,571.375000 515.109314,572.285034 511.280701,572.133240 
	C398.159302,567.650452 306.146057,492.753510 279.481903,383.439545 
	C260.030426,303.695190 278.466400,232.138382 328.664185,167.685425 
z"/>
<path fill="#000000" opacity="1.000000" stroke="none" 
	d="
M585.705688,530.626709 
	C606.303650,523.096069 627.397339,518.891968 648.217407,513.672791 
	C661.150024,510.430786 674.053711,507.015533 685.935364,500.765320 
	C690.277710,498.481110 695.655029,496.304382 695.667175,490.421783 
	C695.680115,484.157898 689.971008,482.230438 685.372620,480.129730 
	C668.223816,472.295441 649.801941,469.210907 631.376099,466.322327 
	C603.416321,461.939117 575.301636,458.891266 547.059143,457.021667 
	C545.310303,456.905884 543.593323,456.308868 541.674133,455.895355 
	C543.010681,453.113251 545.124451,453.905487 546.708496,454.030670 
	C561.997803,455.239136 577.371033,453.996460 592.636169,455.634918 
	C596.318298,456.030121 598.580017,455.279602 599.230896,451.011444 
	C600.207886,444.604706 601.603149,438.244446 603.169556,431.951294 
	C604.125549,428.110657 602.664856,427.134857 599.205322,427.332520 
	C585.411438,428.120544 571.611633,428.807953 557.818848,429.614380 
	C549.674805,430.090515 541.546326,430.898346 533.397644,431.201996 
	C529.557678,431.345062 527.906433,432.704407 528.187561,436.584503 
	C528.379639,439.236511 528.230835,441.914673 528.203369,444.580811 
	C528.140991,450.644409 527.592957,451.075684 521.885498,448.810425 
	C499.379578,439.877991 476.209534,433.134979 452.511627,428.329773 
	C424.168121,422.582581 395.473083,420.507965 366.566559,421.251129 
	C364.644592,421.300568 362.596344,421.872650 360.778595,420.618591 
	C360.826538,418.548370 362.465454,418.827942 363.665619,418.640350 
	C384.228333,415.426056 404.848022,412.672943 425.569519,410.662811 
	C440.812347,409.184113 456.011475,407.276550 471.327728,406.578430 
	C475.505188,406.388000 479.052826,402.625000 479.267120,398.460785 
	C479.523743,393.473236 479.580170,388.471283 479.583771,383.475494 
	C479.610107,346.812866 479.601624,310.150208 479.603851,273.487579 
	C479.604340,265.527191 479.603943,257.566803 478.770630,249.556381 
	C476.924103,251.462173 477.242249,253.703522 477.239929,255.824326 
	C477.188538,302.485657 477.175415,349.147003 477.114319,395.808319 
	C477.111847,397.709930 477.949829,399.976685 475.896271,401.348450 
	C474.456329,402.310364 472.680420,402.255310 471.047546,401.800446 
	C469.024841,401.237030 468.874786,399.467499 468.872437,397.765656 
	C468.863495,391.266571 468.916351,384.767426 468.916107,378.268280 
	C468.914459,335.772980 468.904999,293.277679 468.898132,250.782394 
	C468.897858,249.034332 468.898102,247.286285 468.389496,245.520950 
	C466.839569,247.036469 467.271057,248.866562 467.269714,250.548370 
	C467.231171,298.876251 467.237244,347.204132 467.189270,395.531982 
	C467.187073,397.746552 468.216003,400.939026 465.497620,401.754486 
	C462.273682,402.721649 458.619873,402.900665 455.254608,402.519257 
	C453.105194,402.275635 453.682709,399.524872 453.675201,397.780029 
	C453.632141,387.781403 453.681091,377.782440 453.681549,367.783569 
	C453.683472,323.955048 453.676971,280.126495 453.687592,236.297974 
	C453.687988,234.657135 453.372833,232.952118 454.348114,231.423706 
	C456.113312,230.409561 457.579254,231.555145 459.042633,232.175171 
	C469.162842,236.463089 479.209198,240.929565 489.382385,245.086273 
	C493.227600,246.657394 493.200562,249.556808 493.196259,252.825745 
	C493.143188,292.987885 493.130341,333.150024 493.107880,373.312195 
	C493.105377,377.734558 493.107513,382.156952 493.107513,387.019135 
	C498.398895,385.238007 499.801636,382.182800 499.782684,377.615234 
	C499.664978,349.285553 499.736969,320.955048 499.793579,292.624908 
	C499.797424,290.691467 499.244598,288.617676 501.050415,286.228394 
	C509.572968,288.649994 518.239624,291.377502 526.608582,294.964233 
	C528.829834,295.916199 528.164734,298.452606 528.170288,300.381714 
	C528.216736,316.546478 528.191895,332.711487 528.239624,348.876251 
	C528.245361,350.835022 527.880432,352.857422 528.886169,355.120911 
	C532.938599,353.631714 535.449097,350.191071 538.427002,347.562561 
	C569.027771,320.551514 599.443909,293.330963 630.089661,266.371338 
	C634.166931,262.784485 636.225952,258.813477 636.730591,253.588684 
	C637.113586,249.621948 638.151611,245.719467 638.556152,241.753494 
	C638.941589,237.975266 640.778198,237.862701 643.654663,239.077042 
	C647.643799,240.761124 651.659790,242.388702 655.711670,243.914703 
	C658.306030,244.891800 659.562500,246.475067 658.695923,249.264328 
	C657.710571,252.435944 658.800171,254.980255 660.549805,257.651154 
	C693.964905,308.661072 727.317932,359.711731 760.635498,410.785461 
	C761.948303,412.797882 763.873962,414.622223 763.790039,417.590271 
	C760.703674,418.542725 759.677185,416.245667 758.455933,414.365906 
	C742.388672,389.636566 726.360962,364.881439 710.263123,340.172028 
	C693.984985,315.185791 677.647095,290.238434 661.303833,265.294739 
	C660.438782,263.974396 659.900269,262.208893 657.663452,261.881714 
	C655.220398,265.690796 656.089233,269.281433 658.169128,272.936462 
	C669.785339,293.349487 681.534912,313.689331 692.905212,334.238861 
	C707.180237,360.037994 721.242126,385.957275 735.108765,411.977814 
	C737.220886,415.941223 739.704102,417.902252 744.011780,418.721771 
	C757.265747,421.243286 770.343018,424.551758 783.246399,428.519287 
	C785.936279,429.346436 785.940857,429.331604 787.543335,431.835052 
	C786.651001,433.601898 785.046143,433.137848 783.605896,433.019897 
	C769.010498,431.824707 754.432983,430.347260 739.819763,429.447479 
	C709.065308,427.553833 678.271912,426.569855 647.457825,426.333191 
	C640.834045,426.282318 640.254944,426.729736 640.331909,433.368408 
	C640.412903,440.356934 640.951965,447.339111 641.114685,454.328186 
	C641.189392,457.535767 642.671021,458.532959 645.723267,458.790588 
	C668.457825,460.709351 691.056152,463.631622 713.312561,468.785736 
	C724.215759,471.310699 734.883423,474.540344 744.537354,480.433228 
	C757.463074,488.323212 758.107239,499.085754 746.051514,508.341583 
	C736.170105,515.928162 724.772705,520.717712 713.295898,525.244202 
	C696.107605,532.023315 678.515076,537.864502 662.578674,547.487305 
	C660.442200,548.777344 657.865295,549.772217 656.368774,551.615417 
	C648.444885,561.374939 637.044739,562.428040 625.940552,564.132080 
	C602.235352,567.769836 578.450623,570.694397 554.440613,571.394836 
	C549.116638,571.550171 543.801331,571.987122 538.478333,572.203430 
	C536.702454,572.275574 534.833374,572.467285 533.225220,571.344482 
	C532.686157,568.579895 534.403809,566.792114 535.612671,564.899902 
	C544.594604,550.841553 558.031860,542.387817 572.783447,535.674866 
	C576.869141,533.815613 581.141724,532.367188 585.705688,530.626709 
M568.635559,326.145782 
	C558.705139,335.018646 549.291260,344.578796 538.684021,352.551147 
	C529.893677,359.157867 526.599060,366.834198 528.140442,377.307709 
	C528.492676,379.701233 528.844788,382.476166 526.945740,384.492188 
	C522.038330,389.701874 517.172241,395.038147 511.302643,399.145447 
	C508.374573,401.194458 504.406158,400.881073 501.183746,399.568298 
	C498.849030,398.617188 499.787628,395.762939 499.982635,393.678680 
	C500.150116,391.888580 501.594604,390.853333 502.834656,389.733307 
	C508.270477,384.823639 513.686340,379.891876 519.120361,374.980225 
	C520.801208,373.460968 522.407776,371.944427 521.157959,368.758179 
	C514.301208,374.957642 508.233246,381.194183 501.391022,386.416260 
	C494.726501,391.502716 493.056702,401.298492 484.149811,404.042999 
	C484.078064,404.065125 484.174408,404.632599 484.239349,405.770050 
	C493.114624,405.274994 502.004120,404.899750 510.863037,404.158844 
	C512.240723,404.043640 513.603027,402.382507 514.759827,401.223938 
	C519.935486,396.040649 524.907837,390.649292 530.181458,385.569672 
	C561.239136,355.654694 592.055481,325.477020 623.661743,296.151642 
	C632.220337,288.210663 633.036926,279.087952 634.001038,268.074707 
	C611.889404,287.707428 590.518677,306.682251 568.635559,326.145782 
M627.372009,310.977142 
	C628.005432,306.457581 629.465027,302.044189 629.437256,297.263672 
	C626.947693,297.640076 625.723450,299.322296 624.328491,300.660187 
	C596.341431,327.502838 568.369080,354.360901 540.422424,381.245605 
	C536.824707,384.706635 533.298218,388.251343 529.901123,391.908112 
	C527.177063,394.840363 527.688416,398.629517 528.773743,401.825928 
	C529.738831,404.668304 532.838257,403.018738 535.025818,403.048004 
	C538.020874,403.088135 541.032471,402.780090 544.010376,402.992767 
	C548.213135,403.292908 551.093323,401.604034 553.932739,398.522461 
	C575.246643,375.390533 596.586487,352.277710 618.283142,329.506653 
	C623.240662,324.303619 626.713257,318.968262 627.372009,310.977142 
M678.635620,343.875885 
	C686.577087,363.813019 694.829895,383.634857 702.278015,403.754639 
	C704.635620,410.123322 707.796936,413.348907 714.589844,413.447021 
	C720.316223,413.529724 725.826599,416.152557 732.859497,415.547546 
	C707.708801,368.480286 682.275024,322.514191 655.609009,277.082397 
	C654.221436,281.195282 653.032715,284.807587 654.957520,289.120667 
	C662.956787,307.045624 670.583313,325.136932 678.635620,343.875885 
M667.432983,386.163116 
	C668.743896,392.008179 670.039917,397.856628 671.375366,403.696045 
	C671.741821,405.298340 671.887878,407.339417 673.848206,407.686859 
	C682.463745,409.213623 691.121948,410.448914 700.993225,410.857574 
	C686.054871,370.951294 670.253601,332.501007 652.897217,294.630890 
	C650.899902,302.394623 649.125549,309.895508 651.336365,317.826935 
	C657.548035,340.111725 662.423279,362.723145 667.432983,386.163116 
M620.339417,333.222229 
	C598.574097,355.509521 577.643494,378.555389 557.078674,402.240112 
	C572.657104,402.980194 587.799866,402.794952 602.933350,403.087555 
	C607.782532,403.181335 609.823547,401.379700 610.645630,396.822693 
	C612.476562,386.673065 614.610718,376.578033 616.628052,366.462128 
	C618.580627,356.671173 620.553040,346.884155 622.492798,337.090698 
	C623.139160,333.827393 622.978760,333.500854 620.339417,333.222229 
M653.824341,342.570099 
	C652.307190,336.608459 650.790039,330.646790 648.937073,323.365723 
	C648.188354,325.675415 647.807190,326.443970 647.697388,327.249481 
	C644.298706,352.167908 642.876770,377.248108 641.593567,402.339172 
	C641.506348,404.044586 642.121643,405.385223 643.978271,405.533234 
	C651.714844,406.149963 659.457825,406.685944 667.860962,407.299927 
	C663.952087,385.346771 658.810181,364.393921 653.824341,342.570099 
M485.951752,387.098877 
	C485.951752,388.616150 485.951752,390.133453 485.951752,391.650726 
	C486.092926,391.645508 486.234131,391.640259 486.375305,391.635040 
	C486.375305,345.386169 486.375305,299.137329 486.375305,252.888489 
	C486.232910,252.889191 486.090546,252.889893 485.948151,252.890610 
	C485.948151,297.328796 485.948151,341.766968 485.951752,387.098877 
M460.203705,346.500000 
	C460.203705,362.170471 460.203705,377.840942 460.203705,393.511383 
	C460.354523,393.510468 460.505341,393.509583 460.656158,393.508667 
	C460.656158,343.096283 460.656158,292.683899 460.656158,242.271500 
	C460.506714,242.271271 460.357300,242.271027 460.207855,242.270782 
	C460.207855,276.680511 460.207855,311.090271 460.203705,346.500000 
z"/>
<path fill="#000000" opacity="1.000000" stroke="none" 
	d="
M618.806335,477.085022 
	C603.953491,471.745239 588.685608,469.419128 573.834717,465.819885 
	C574.019104,464.057556 574.876221,463.907074 575.702820,464.015411 
	C599.620178,467.149353 623.687744,469.414185 647.049377,475.852570 
	C652.984497,477.488281 658.918457,479.301819 664.048767,482.904297 
	C669.429443,486.682648 669.667786,490.779602 664.776917,495.161072 
	C660.577881,498.922729 655.390869,500.821686 650.136475,502.473969 
	C633.405396,507.735168 616.111816,510.323425 598.882263,513.256348 
	C582.135925,516.106995 565.523193,519.555847 549.415527,525.151367 
	C542.050354,527.709900 534.472412,525.710754 527.125610,524.957703 
	C493.741364,521.535767 462.251099,511.939575 433.275940,494.698364 
	C431.302155,493.523926 429.127869,492.594116 427.268646,489.609650 
	C432.207123,489.010223 436.661072,488.166779 441.142792,487.975464 
	C467.438660,486.853149 493.713257,486.796509 520.018005,488.455902 
	C550.285156,490.365295 580.594971,491.160522 610.758850,486.672363 
	C613.531982,486.259735 616.272644,485.406464 618.921509,484.458984 
	C620.698242,483.823456 623.273621,483.507233 623.303406,481.015900 
	C623.331909,478.621948 620.843506,478.179474 618.806335,477.085022 
z"/>
<path fill="#000000" opacity="1.000000" stroke="none" 
	d="
M583.920715,482.292419 
	C554.225403,483.213928 525.223328,480.512939 496.222626,477.554169 
	C485.798889,476.490692 475.317474,475.781036 464.845337,475.450226 
	C446.719513,474.877563 428.591705,473.194244 410.441376,475.017548 
	C407.568146,475.306183 404.935425,474.948151 402.550568,472.845490 
	C389.480225,461.321625 378.265900,448.163483 368.058624,434.104218 
	C367.402313,433.200226 367.039886,432.082825 366.593567,431.172394 
	C367.638672,429.188354 369.326996,429.781006 370.705414,429.732635 
	C405.627563,428.508026 439.732941,433.695343 473.455139,442.427338 
	C499.124023,449.074036 523.875977,458.571045 549.253174,466.093964 
	C565.385010,470.876190 581.771179,474.672424 598.312622,477.778778 
	C600.056274,478.106232 601.999268,477.975433 604.032166,480.613464 
	C597.038696,481.209564 590.724182,481.747772 583.920715,482.292419 
z"/>
<path fill="#000000" opacity="1.000000" stroke="none" 
	d="
M530.139343,728.772522 
	C536.061279,721.314819 539.387146,712.528259 543.982178,704.447876 
	C548.261841,696.921997 552.317383,689.257446 556.163635,681.501221 
	C557.895569,678.008667 560.220642,676.601196 564.038513,676.843018 
	C567.688660,677.074097 571.375305,677.034424 575.028748,676.820190 
	C578.705139,676.604797 580.132324,678.114807 580.089844,681.749329 
	C579.984802,690.744873 580.085327,699.742676 580.086548,708.739563 
	C580.088928,726.899963 580.084045,745.060364 580.074280,763.220764 
	C580.070496,770.237549 579.994812,770.392090 573.240845,770.308716 
	C560.087524,770.146484 561.762024,772.369934 561.707214,758.593384 
	C561.642334,742.299744 561.692017,726.005676 560.683105,709.369690 
	C556.573914,717.197571 552.436401,725.010803 548.364197,732.857910 
	C544.911865,739.510437 541.437256,746.154785 538.164551,752.895874 
	C536.433594,756.461304 534.471741,758.547974 529.907043,758.502075 
	C525.437744,758.457214 523.931091,756.141724 522.253906,752.842834 
	C515.536438,739.629700 508.641693,726.506653 501.792938,713.360413 
	C501.280945,712.377625 500.614807,711.475037 499.900543,710.345764 
	C498.397308,712.260071 499.022156,714.132263 499.018860,715.853210 
	C498.987793,732.013977 498.916473,748.176208 499.104980,764.335083 
	C499.156250,768.732544 497.979370,770.545898 493.185394,770.453552 
	C480.686981,770.212708 480.682037,770.424561 480.681366,758.140930 
	C480.679993,733.149475 480.790192,708.157104 480.582184,683.167358 
	C480.542267,678.368591 482.149445,677.312317 486.789459,676.741455 
	C497.532318,675.419739 504.247803,678.500488 508.680847,689.168945 
	C513.705933,701.261963 520.777710,712.505920 526.993103,724.101135 
	C527.849426,725.698730 528.897644,727.193481 530.139343,728.772522 
z"/>
<path fill="#000000" opacity="1.000000" stroke="none" 
	d="
M679.906616,762.964355 
	C673.638855,767.931274 666.628784,770.039612 659.193665,770.191528 
	C645.381287,770.473816 631.559021,770.233215 617.742493,770.373596 
	C614.268127,770.408875 612.984924,769.013306 612.995361,765.664490 
	C613.080688,738.362183 613.028687,711.059265 613.190979,683.757568 
	C613.231445,676.943909 613.522156,676.804749 620.322876,676.934753 
	C633.791199,677.192078 647.288940,676.013367 660.727844,677.670959 
	C678.476562,679.860046 688.356079,694.724243 682.700439,710.405701 
	C680.978455,715.180237 677.169434,718.076355 673.110657,721.753540 
	C682.489197,726.053406 687.768127,732.732788 688.298401,742.691589 
	C688.722961,750.664062 686.295776,757.429688 679.906616,762.964355 
M631.947510,748.203247 
	C632.457520,750.332703 630.476318,753.969788 634.549744,754.033875 
	C642.867615,754.164734 651.224304,754.185059 659.505005,753.512207 
	C665.432373,753.030518 669.513245,748.060852 669.568665,742.835022 
	C669.632385,736.827576 665.721008,732.426575 659.265320,731.254089 
	C651.660645,729.872925 643.986328,730.483887 636.335327,730.486816 
	C633.195801,730.488037 631.936462,732.225464 631.997070,735.282410 
	C632.076416,739.278198 631.985901,743.277466 631.947510,748.203247 
M661.521240,695.853760 
	C652.866028,691.259033 643.549194,693.868835 634.518982,693.441650 
	C632.335815,693.338379 631.988342,695.259399 631.978394,697.023010 
	C631.952087,701.685974 631.986877,706.349243 631.963684,711.012268 
	C631.950256,713.706421 633.231079,714.965576 635.935730,714.926453 
	C642.262390,714.835022 648.601990,715.016785 654.912903,714.666138 
	C659.250549,714.425232 662.995239,712.672607 664.694336,708.144226 
	C666.386353,703.634888 665.669861,699.664673 661.521240,695.853760 
z"/>
<path fill="#000000" opacity="1.000000" stroke="none" 
	d="
M822.993042,770.338989 
	C812.655701,770.343994 812.659302,770.343994 812.654236,760.711121 
	C812.640686,734.879395 812.714233,709.046997 812.525146,683.216553 
	C812.490845,678.528625 813.835754,676.663574 818.734375,676.847473 
	C832.042236,677.346863 845.368835,676.370239 858.685974,677.647278 
	C883.775391,680.053284 896.348633,705.660217 882.484741,726.348572 
	C879.105957,731.390503 873.988831,734.122437 868.382080,737.089844 
	C876.035706,747.811462 883.517273,758.292114 891.905640,770.043030 
	C883.811035,770.043030 877.131836,770.166565 870.462952,769.957581 
	C868.759460,769.904114 867.924744,767.941162 866.975525,766.586853 
	C862.002991,759.492249 856.818909,752.530457 852.185059,745.220276 
	C849.744446,741.370178 846.937317,739.911682 842.417358,740.033936 
	C829.539917,740.382019 831.321045,738.707581 831.225525,751.232910 
	C831.196350,755.065674 831.236633,758.899048 831.236633,762.732117 
	C831.236694,770.331299 831.234314,770.331299 822.993042,770.338989 
M861.238525,720.945312 
	C867.569336,716.875977 870.103210,710.679260 868.197083,703.927917 
	C866.447571,697.731079 861.892517,694.442322 854.210144,694.187500 
	C848.062622,693.983582 841.905396,694.078796 835.752625,694.025391 
	C833.159119,694.002869 831.154053,694.500671 831.195557,697.799194 
	C831.285461,704.949585 831.240601,712.101624 831.249695,719.252991 
	C831.252014,721.072144 831.684998,722.837280 833.844849,722.778442 
	C842.760376,722.535217 851.793335,724.262817 861.238525,720.945312 
z"/>
<path fill="#000000" opacity="1.000000" stroke="none" 
	d="
M317.874176,700.989502 
	C317.893372,694.162659 317.932098,687.833191 317.919647,681.503845 
	C317.913666,678.473083 319.158783,676.867371 322.387238,676.900330 
	C339.495880,677.075073 336.768890,674.790588 336.890106,690.418579 
	C337.080048,714.902954 336.948456,739.389709 336.947845,763.875488 
	C336.947693,770.190918 336.798767,770.332092 330.539429,770.339172 
	C317.875244,770.353516 317.870514,770.353516 317.864105,757.627991 
	C317.860596,750.632019 317.783752,743.634277 317.924377,736.640991 
	C317.988861,733.434875 316.765228,732.171692 313.536469,732.200317 
	C301.877411,732.303772 290.216217,732.316284 278.557373,732.202515 
	C275.266418,732.170410 274.189178,733.509460 274.230286,736.669067 
	C274.353760,746.162048 274.161682,755.660095 274.352753,765.150879 
	C274.430084,768.991577 273.195801,770.716858 269.194885,770.369019 
	C266.383972,770.124695 263.521362,770.131104 260.707153,770.350342 
	C256.668854,770.664917 255.595901,768.807495 255.612518,765.035278 
	C255.734344,737.384888 255.764801,709.733582 255.648193,682.083252 
	C255.631348,678.089233 257.110382,676.874756 260.913177,676.899414 
	C276.937866,677.003540 273.971069,675.225708 274.247101,689.948669 
	C274.368866,696.442688 274.445465,702.947205 274.209808,709.434875 
	C274.065063,713.419495 275.248657,715.129272 279.526062,715.041748 
	C290.515167,714.816772 301.514496,714.830933 312.504395,715.035706 
	C316.681396,715.113525 318.259705,713.550049 317.932892,709.479492 
	C317.720245,706.830750 317.879852,704.152161 317.874176,700.989502 
z"/>
<path fill="#000000" opacity="1.000000" stroke="none" 
	d="
M716.019531,679.490417 
	C717.149475,676.682129 719.301453,676.944885 721.261658,676.940308 
	C739.924011,676.896240 758.587341,676.975586 777.248291,676.799133 
	C781.524170,676.758728 782.765137,678.444641 782.525696,682.465332 
	C781.782837,694.935364 785.029480,694.112488 770.631348,694.162170 
	C760.300476,694.197815 749.967834,694.264954 739.639221,694.107300 
	C736.077393,694.052856 734.421387,694.950500 734.801086,698.907104 
	C735.165344,702.702698 735.131470,706.591553 734.752808,710.387512 
	C734.389771,714.026917 735.729004,715.046631 739.177246,714.998596 
	C750.006104,714.847656 760.841309,715.080261 771.667542,714.853516 
	C775.954224,714.763733 777.444397,716.145630 777.529053,720.553406 
	C777.738281,731.448792 777.960327,731.432495 767.114136,731.421570 
	C758.116211,731.412476 749.117371,731.513184 740.120789,731.407959 
	C736.444397,731.364990 734.579041,732.421631 734.865967,736.562561 
	C735.152588,740.698547 735.065125,744.912598 734.605591,749.032654 
	C734.193420,752.727844 735.597290,753.742004 739.010010,753.715393 
	C751.673035,753.616577 764.337341,753.676392 777.001160,753.683960 
	C783.739075,753.687988 783.743469,753.706909 783.943787,760.214355 
	C784.323425,772.548767 783.781982,770.233643 774.263000,770.292542 
	C756.600952,770.401917 738.936951,770.238831 721.276001,770.413452 
	C717.137207,770.454346 715.707642,769.019775 715.730103,764.918091 
	C715.885498,736.592773 715.880676,708.266479 716.019531,679.490417 
z"/>
<path fill="#000000" opacity="1.000000" stroke="none" 
	d="
M435.341705,718.741638 
	C442.704468,735.797607 449.947083,752.492554 457.658142,770.267212 
	C450.847870,770.267212 445.566315,770.277161 440.284821,770.262939 
	C437.762482,770.256165 437.055481,768.305542 436.253357,766.445557 
	C434.408356,762.167236 432.460175,757.931335 430.710938,753.614563 
	C429.686768,751.087097 427.990845,750.144653 425.319763,750.163025 
	C413.665527,750.243042 402.009949,750.265869 390.356049,750.169434 
	C387.563873,750.146240 386.121460,751.367004 385.146271,753.822266 
	C383.426758,758.151306 381.518372,762.405212 379.693054,766.692322 
	C378.886139,768.587585 377.997437,770.323669 375.493561,770.304626 
	C370.364258,770.265625 365.234467,770.292908 360.371857,770.292908 
	C358.806152,767.875366 360.216431,766.302124 360.895050,764.739563 
	C372.827545,737.265198 384.887299,709.845703 396.701172,682.320618 
	C398.496216,678.138306 401.022430,677.195129 405.360077,676.689819 
	C414.171234,675.663391 418.957245,678.537170 421.904663,687.174072 
	C425.547211,697.848022 430.713593,708.001953 435.341705,718.741638 
M416.315857,719.140076 
	C413.476074,713.256348 411.671967,706.876404 407.876373,700.549683 
	C403.170288,711.579956 398.120850,721.543884 394.407501,732.911865 
	C403.817291,732.979126 412.311279,733.559387 421.003235,732.624939 
	C420.582123,727.518433 417.952301,723.903442 416.315857,719.140076 
z"/>
<path fill="#000000" opacity="1.000000" stroke="none" 
	d="
M426.829468,323.000000 
	C426.828888,305.508118 426.846832,288.516235 426.810516,271.524414 
	C426.804382,268.644257 427.116913,265.946838 428.680206,263.394958 
	C434.855957,253.314087 440.932770,243.172668 447.051147,233.056641 
	C447.487946,232.334396 448.003479,231.693542 449.112457,231.738922 
	C450.852295,233.046341 450.114227,235.037140 450.115479,236.727798 
	C450.155304,290.202026 450.145508,343.676300 450.135315,397.150574 
	C450.134094,403.475922 449.682587,403.883575 443.451141,404.279846 
	C439.634705,404.522522 435.808258,404.786041 432.024323,405.313019 
	C428.107086,405.858521 426.683868,404.503632 426.749512,400.462311 
	C426.949677,388.138062 426.832672,375.808594 426.834076,363.481171 
	C426.835571,350.154114 426.831390,336.827057 426.829468,323.000000 
z"/>
<path fill="#000000" opacity="1.000000" stroke="none" 
	d="
M199.862335,675.765625 
	C209.605606,677.649780 218.068497,681.191040 225.256165,687.623596 
	C228.051147,690.125000 228.779373,692.100830 225.739929,694.913574 
	C222.942017,697.502747 220.936661,701.690247 217.727112,702.894104 
	C214.172729,704.227356 212.091202,699.152832 208.892975,697.510925 
	C197.160995,691.487976 185.500427,690.818909 174.365219,698.371277 
	C163.278000,705.890930 160.384033,717.280701 162.599594,729.684509 
	C164.853729,742.304382 172.866333,750.449829 185.558838,753.177307 
	C195.617065,755.338623 204.831955,752.895813 212.473862,745.967712 
	C215.786926,742.964172 218.213577,742.548279 220.945038,746.308838 
	C221.718918,747.374268 222.798233,748.217957 223.738266,749.162476 
	C229.380585,754.831848 229.366470,755.196289 223.310440,760.175659 
	C197.898544,781.069702 159.910156,773.230408 146.861465,743.998047 
	C139.408478,727.301575 140.671326,710.645874 151.290741,695.589355 
	C162.313232,679.961243 178.060928,673.894958 196.938354,675.547974 
	C197.767960,675.620605 198.599838,675.667175 199.862335,675.765625 
z"/>
<path fill="#000000" opacity="1.000000" stroke="none" 
	d="
M387.303345,327.000061 
	C387.299988,353.319672 387.197449,379.140015 387.388000,404.958160 
	C387.421295,409.473175 385.978943,411.031830 381.516907,411.396179 
	C374.068207,412.004364 366.663208,413.237579 359.270782,414.404175 
	C355.968323,414.925354 354.734528,413.863525 354.743103,410.518036 
	C354.818176,381.200531 354.809021,351.882843 354.809479,322.565186 
	C354.809509,320.637604 355.209259,318.930603 356.848083,317.716644 
	C366.212494,310.780060 375.572174,303.837128 384.958710,296.930664 
	C385.291351,296.685913 385.888977,296.801239 387.303711,296.644623 
	C387.303711,306.719360 387.303711,316.609711 387.303345,327.000061 
z"/>
<path fill="#000000" opacity="1.000000" stroke="none" 
	d="
M410.522125,407.714417 
	C405.289001,408.328491 400.478088,408.719086 395.714874,409.429352 
	C391.886444,410.000244 390.714294,408.479034 390.758026,404.803894 
	C390.902496,392.658447 390.835999,380.510376 390.836700,368.363312 
	C390.837921,346.232361 390.820007,324.101379 390.842316,301.970459 
	C390.844086,300.188873 390.403046,298.294067 391.627625,296.737457 
	C392.863037,295.913452 393.930115,296.565338 394.985413,296.984650 
	C401.628357,299.624176 408.217316,302.407898 414.918549,304.888824 
	C418.309692,306.144287 419.982513,308.010529 419.975128,311.823761 
	C419.917053,341.775055 419.910400,371.727234 420.107422,401.677673 
	C420.155731,409.020325 414.655487,406.659363 410.522125,407.714417 
z"/>
<path fill="#000000" opacity="1.000000" stroke="none" 
	d="
M460.922363,609.034607 
	C460.923370,607.375183 460.800598,606.193176 460.952698,605.047668 
	C461.277374,602.603027 459.625702,599.009583 463.213013,598.218872 
	C466.991394,597.386047 470.858704,597.036011 473.866760,601.233398 
	C481.510040,611.898438 489.600616,622.242981 497.714142,632.983215 
	C499.446686,631.328064 498.851959,629.595032 498.866211,628.118103 
	C498.943298,620.127197 498.998169,612.133789 498.872406,604.144226 
	C498.814240,600.448547 498.951569,597.716309 503.980133,597.730774 
	C508.706848,597.744385 509.423096,599.906982 509.372772,603.892517 
	C509.202606,617.376648 509.355652,630.864746 509.228088,644.349854 
	C509.206573,646.625549 510.554657,650.073303 507.267975,650.811218 
	C503.686676,651.615295 499.711945,652.238892 496.836456,648.330750 
	C491.017242,640.421631 485.007324,632.652344 479.041168,624.852051 
	C476.953430,622.122498 474.763092,619.471375 471.973694,615.974792 
	C470.809326,626.688782 471.472443,636.315430 471.441833,645.911011 
	C471.429688,649.717224 470.308411,651.224121 466.319855,651.249939 
	C462.013062,651.277771 460.856384,649.351685 460.889038,645.491089 
	C460.990448,633.504333 460.924316,621.516174 460.922363,609.034607 
z"/>
<path fill="#000000" opacity="1.000000" stroke="none" 
	d="
M601.762085,613.592529 
	C605.895996,625.577942 604.151184,636.213013 594.973877,644.536011 
	C585.852478,652.808228 574.922180,653.875061 563.784668,649.007080 
	C552.573853,644.106995 547.364014,633.608582 548.726196,620.243652 
	C549.803894,609.670349 558.043762,600.659607 569.313904,597.730103 
	C580.490967,594.824768 592.561584,599.319397 599.152893,608.900330 
	C600.089539,610.261902 600.789917,611.786011 601.762085,613.592529 
M568.192200,608.513123 
	C566.110046,609.621277 564.354248,611.128967 562.849060,612.930359 
	C558.011230,618.720459 557.518982,627.683472 561.662170,634.336548 
	C565.261169,640.115784 572.664856,643.424988 578.719177,642.049438 
	C590.757568,639.314270 595.105530,629.606506 592.264160,618.400391 
	C589.883911,609.013367 577.987122,603.541931 568.192200,608.513123 
z"/>
<path fill="#000000" opacity="1.000000" stroke="none" 
	d="
M685.020081,636.082581 
	C686.728516,640.927490 689.573120,644.969299 690.121582,649.795776 
	C683.435913,652.795654 680.449524,651.875305 678.137939,645.476318 
	C676.472351,640.865356 673.864624,638.706787 668.895874,639.349182 
	C666.604126,639.645447 664.216614,639.618103 661.916626,639.353699 
	C654.926758,638.550354 649.726868,639.991028 647.567627,647.852783 
	C646.479187,651.815857 642.467957,652.271118 636.196838,650.025818 
	C637.623779,643.703918 640.976807,638.119812 643.453796,632.217407 
	C647.702271,622.093872 652.357056,612.140503 656.585449,602.008911 
	C658.013611,598.586914 660.336975,597.873901 663.626465,597.814697 
	C666.841858,597.756775 668.894104,598.717468 670.212402,601.842773 
	C674.995667,613.182556 679.974670,624.439758 685.020081,636.082581 
M664.508606,613.761658 
	C663.796448,612.959106 662.948730,612.970520 662.503784,613.860046 
	C660.088074,618.690002 657.841187,623.594238 656.189514,629.493347 
	C661.353027,629.880371 665.786865,630.456726 670.393433,629.055359 
	C669.455200,623.461060 666.794189,619.009888 664.508606,613.761658 
z"/>
<path fill="#000000" opacity="1.000000" stroke="none" 
	d="
M417.947510,632.169312 
	C420.521759,638.286499 422.934357,644.057922 425.354126,649.846436 
	C417.472351,652.683105 415.234711,651.857910 412.660767,644.871704 
	C411.200653,640.908630 409.118713,638.889893 404.618042,639.294373 
	C400.325775,639.680176 395.948669,639.658508 391.651398,639.302490 
	C387.252441,638.938049 385.069641,640.747559 383.515472,644.747559 
	C380.723724,651.932800 379.312653,652.395447 371.373596,650.371399 
	C370.516266,649.019958 371.211304,647.784180 371.734283,646.591492 
	C378.146729,631.966980 384.690094,617.398499 390.943817,602.706665 
	C392.599670,598.816650 395.087311,597.748962 399.051422,597.770691 
	C402.895691,597.791809 404.132721,600.007446 405.367950,602.947998 
	C409.425629,612.607483 413.634888,622.203308 417.947510,632.169312 
M395.810913,629.961487 
	C398.882996,629.738770 402.059570,630.449341 405.609467,628.972473 
	C403.487549,623.261230 401.322876,617.885559 397.856567,611.718628 
	C395.049957,618.197815 392.730011,623.553528 390.501831,628.697388 
	C392.271393,630.176025 393.649170,629.874207 395.810913,629.961487 
z"/>
<path fill="#000000" opacity="1.000000" stroke="none" 
	d="
M733.522949,649.850769 
	C730.966553,648.513977 728.778259,647.325073 726.592346,646.131653 
	C722.596069,643.949890 722.678040,641.612244 725.750244,638.391174 
	C727.781311,636.261597 729.107605,635.867188 731.534546,637.684021 
	C736.187012,641.166992 741.322937,643.401428 747.369202,641.848022 
	C750.112854,641.143127 752.412537,639.910583 752.673828,636.702332 
	C752.937073,633.469604 750.831421,631.744141 748.210449,630.820618 
	C744.137451,629.385376 739.909485,628.395386 735.810425,627.027161 
	C727.935181,624.398499 724.550842,619.854431 724.706360,612.411194 
	C724.850586,605.504333 729.113892,600.217102 736.427612,598.028931 
	C744.408875,595.641052 751.912292,597.302795 759.090698,601.005371 
	C761.100403,602.041931 763.000916,603.446655 760.886414,606.024048 
	C759.183105,608.100220 758.576660,612.169128 754.240784,609.695190 
	C750.737549,607.696289 746.979858,606.142395 742.873291,606.453186 
	C739.502502,606.708313 735.973022,607.449768 735.384644,611.656555 
	C734.809998,615.765686 737.950012,617.051941 741.065674,618.048523 
	C744.708252,619.213623 748.442505,620.101868 752.056885,621.343384 
	C760.824463,624.355103 764.096069,629.255554 763.252991,637.793823 
	C762.577454,644.635071 756.981506,650.052734 749.177612,651.222839 
	C744.010132,651.997620 738.886475,651.660583 733.522949,649.850769 
z"/>
<path fill="#000000" opacity="1.000000" stroke="none" 
	d="
M305.695557,599.427856 
	C315.907867,595.208191 325.280609,596.350769 334.036163,602.200439 
	C335.914459,603.455322 339.605225,604.690796 336.586639,608.198792 
	C334.374756,610.769287 332.842499,614.642639 328.103607,610.666687 
	C322.359894,605.847778 315.421021,605.714722 308.870148,609.036865 
	C302.883209,612.073059 300.300964,617.485107 300.185150,624.212158 
	C300.065338,631.173218 302.647461,636.530029 308.887878,639.811768 
	C315.625671,643.355103 322.103577,642.410583 328.092194,638.036011 
	C330.286438,636.433167 331.877228,635.176697 334.419830,637.724487 
	C338.597107,641.910461 338.675690,642.853516 333.720215,646.415100 
	C320.579773,655.859802 301.476593,652.317627 293.375519,638.934265 
	C284.967499,625.043884 290.489380,606.873596 305.695557,599.427856 
z"/>
<path fill="#000000" opacity="1.000000" stroke="none" 
	d="
M587.042358,826.721313 
	C586.838013,822.864746 587.643005,819.364197 586.257141,815.590393 
	C582.442505,817.876221 581.937866,821.761108 580.087952,824.709900 
	C578.959473,826.508667 578.363098,828.890442 575.585266,828.737793 
	C573.164612,828.604858 572.457153,826.616516 571.542419,824.813049 
	C569.759277,821.297241 567.873047,817.833740 565.446045,813.245605 
	C563.559509,818.730591 564.460205,823.161072 564.282166,827.474915 
	C564.172058,830.141907 564.689514,833.109985 560.577820,833.124023 
	C556.518982,833.137878 556.791382,830.231934 556.789551,827.525146 
	C556.784058,819.363586 556.739563,811.201355 556.833862,803.040833 
	C556.856995,801.035461 556.120544,798.273254 559.275208,797.863647 
	C562.199890,797.484070 565.273254,797.019958 567.014465,800.620850 
	C569.186890,805.113464 571.624207,809.478088 573.944702,813.899170 
	C574.261047,814.501892 574.563232,815.111938 575.210938,816.384827 
	C579.902283,811.446777 581.452698,805.896118 584.261719,801.160889 
	C585.573486,798.949585 586.916626,797.716064 589.650696,797.573853 
	C593.575134,797.369812 595.074280,798.897339 595.002625,802.746399 
	C594.850830,810.905518 594.960144,819.069336 594.844788,827.229492 
	C594.808838,829.774231 595.384827,832.963196 591.276367,833.075195 
	C587.029114,833.191101 587.220642,830.033264 587.042358,826.721313 
z"/>
<path fill="#000000" opacity="1.000000" stroke="none" 
	d="
M536.975952,811.013428 
	C536.961792,817.166138 536.995544,822.821716 536.915039,828.475647 
	C536.879883,830.946960 536.412476,833.185608 533.095459,833.117981 
	C529.675720,833.048218 529.724976,830.710754 529.628357,828.268127 
	C529.447327,823.690247 530.273315,819.038391 528.861694,814.089661 
	C525.864746,815.543945 525.805359,818.556274 524.322754,820.528076 
	C522.222900,823.320740 522.237793,828.529236 517.885132,828.589661 
	C513.370117,828.652466 513.483032,823.416260 511.565613,820.523254 
	C510.168671,818.415527 509.693115,815.676758 507.058228,813.620422 
	C505.601013,818.789917 506.444519,823.423401 506.246765,827.977600 
	C506.133362,830.587891 506.224487,833.224731 502.528412,833.121887 
	C498.941162,833.022095 498.876801,830.398010 498.872131,827.797791 
	C498.857147,819.481262 498.808990,811.164307 498.877655,802.848389 
	C498.894409,800.820129 498.285645,798.122498 501.482880,797.819458 
	C504.237793,797.558350 507.172058,797.038330 508.840363,800.394531 
	C511.059784,804.859314 513.457092,809.236267 515.823181,813.626587 
	C516.119873,814.177185 516.691162,814.579773 517.142212,815.058350 
	C519.906433,814.732483 520.491333,812.406067 521.484009,810.625366 
	C523.426208,807.141479 525.157837,803.540894 527.029541,800.016724 
	C528.765198,796.748840 531.871521,797.547424 534.570190,797.828003 
	C537.347229,798.116699 536.960266,800.604431 537.013062,802.532593 
	C537.085938,805.191284 536.997131,807.854370 536.975952,811.013428 
z"/>
<path fill="#000000" opacity="1.000000" stroke="none" 
	d="
M670.339966,822.311646 
	C665.954407,821.566711 665.142151,823.748413 665.238831,827.178955 
	C665.295227,829.178284 666.222168,831.924561 663.501770,832.854431 
	C660.699951,833.812134 657.922302,833.417664 657.886353,829.535400 
	C657.798584,820.057983 657.891113,810.578857 657.910400,801.100464 
	C657.915710,798.488708 659.455933,797.694397 661.796692,797.713013 
	C665.953918,797.746155 670.112915,797.651367 674.268982,797.727295 
	C679.121155,797.815979 683.124573,799.695679 685.191772,804.244690 
	C687.275818,808.830872 687.045837,813.845581 683.537170,817.334717 
	C679.887878,820.963623 681.023499,823.354736 683.641785,826.483582 
	C684.961670,828.060852 686.504517,829.716553 686.692017,832.305237 
	C682.513550,833.893005 679.302063,833.438965 676.746948,829.533569 
	C675.046814,826.934814 673.684692,823.956177 670.339966,822.311646 
M667.124512,804.489868 
	C663.766296,807.090027 664.587341,811.105530 666.013611,813.441650 
	C667.752075,816.289001 671.777039,814.979431 674.778992,814.320862 
	C677.044312,813.823975 678.466125,812.021057 678.516541,809.581360 
	C678.567810,807.100586 677.079773,805.589233 674.859131,804.780823 
	C672.606201,803.960754 670.258484,804.306213 667.124512,804.489868 
z"/>
<path fill="#000000" opacity="1.000000" stroke="none" 
	d="
M480.741943,818.326660 
	C477.966339,828.001526 472.352936,832.899536 463.948669,833.300720 
	C455.071716,833.724365 448.658234,829.951111 445.544342,822.474670 
	C442.563538,815.317627 443.615753,808.533081 448.647339,802.919800 
	C453.993652,796.955139 461.006500,795.349976 468.703003,797.934753 
	C476.111603,800.422913 479.927216,805.901123 480.946899,813.456299 
	C481.143646,814.913940 480.884827,816.433044 480.741943,818.326660 
M451.566040,816.917114 
	C451.878143,817.865112 452.121552,818.842529 452.513824,819.756104 
	C454.532043,824.456177 458.948883,827.341431 463.542847,826.549133 
	C468.338806,825.722107 471.720062,823.015808 472.887390,818.048035 
	C474.107208,812.856873 472.243591,807.938416 468.114655,805.411865 
	C464.029633,802.912048 458.789703,803.390869 455.189362,806.726501 
	C452.469055,809.246948 451.446411,812.522034 451.566040,816.917114 
z"/>
<path fill="#000000" opacity="1.000000" stroke="none" 
	d="
M284.269958,801.174316 
	C292.607056,795.654358 300.705048,795.493469 307.356720,800.481873 
	C313.509521,805.096191 316.273834,813.145874 313.995636,820.494385 
	C311.766724,827.683960 306.834839,832.109070 299.365112,833.127075 
	C291.690369,834.172974 285.092773,831.991455 280.795990,825.098816 
	C276.583954,818.342163 276.986237,811.501770 281.080536,804.825867 
	C281.852325,803.567444 283.008789,802.544922 284.269958,801.174316 
M286.338470,810.961121 
	C284.392517,817.931946 286.784698,823.630798 292.530792,825.712646 
	C297.874756,827.648865 303.845154,825.048340 306.153320,819.779297 
	C308.477692,814.473145 306.499725,808.037720 301.738617,805.416321 
	C296.147217,802.337708 290.493530,804.143982 286.338470,810.961121 
z"/>
<path fill="#000000" opacity="1.000000" stroke="none" 
	d="
M764.324097,825.966675 
	C767.607239,825.968323 770.435364,825.948914 773.263184,825.966248 
	C775.734497,825.981445 777.445312,826.759338 777.363220,829.708862 
	C777.290100,832.339294 775.833557,833.158020 773.506165,833.155457 
	C767.517700,833.148865 761.529297,833.148621 755.540833,833.162292 
	C752.761292,833.168640 751.738892,831.638672 751.747131,829.047852 
	C751.776428,819.898499 751.800049,810.748901 751.759766,801.599670 
	C751.747925,798.903992 752.873169,797.646790 755.627930,797.672302 
	C761.615906,797.727844 767.604919,797.676147 773.593506,797.655396 
	C775.775330,797.647827 777.087097,798.528992 777.049683,800.885254 
	C777.014587,803.095337 775.960022,804.280762 773.692505,804.291931 
	C770.365906,804.308289 767.037720,804.280884 763.713196,804.375610 
	C761.067017,804.450989 759.228882,805.443359 759.347412,808.555725 
	C759.468994,811.745117 761.706360,811.689819 763.930908,811.718384 
	C766.591980,811.752563 769.253906,811.741028 771.914551,811.795044 
	C774.181213,811.841125 775.188904,813.065186 775.125183,815.306641 
	C775.065979,817.391235 773.939331,818.278503 771.967529,818.322449 
	C769.307922,818.381714 766.638428,818.322571 763.991455,818.538574 
	C761.466553,818.744690 759.483215,819.798401 759.381775,822.769043 
	C759.268311,826.094604 761.730713,825.800293 764.324097,825.966675 
z"/>
<path fill="#000000" opacity="1.000000" stroke="none" 
	d="
M633.671448,811.745483 
	C636.889221,811.734497 638.085754,813.165344 637.798462,815.841431 
	C637.524414,818.394897 635.562073,818.342957 633.691589,818.363831 
	C631.029663,818.393555 628.365784,818.359863 625.706177,818.452637 
	C623.255737,818.538086 622.232849,819.928406 622.196411,822.349487 
	C622.157776,824.914246 623.383179,825.990662 625.821411,825.982788 
	C629.149475,825.972107 632.477905,825.942017 635.805481,825.981995 
	C638.143677,826.010071 640.154236,826.491882 640.195374,829.497192 
	C640.235474,832.432007 638.460876,833.149353 635.990784,833.150635 
	C630.332703,833.153442 624.674316,833.143372 619.016602,833.194031 
	C616.237244,833.218933 614.636719,832.265259 614.664673,829.153259 
	C614.746948,820.001038 614.749390,810.847351 614.674316,801.695129 
	C614.649353,798.656738 616.050720,797.588501 618.933838,797.623596 
	C624.590454,797.692444 630.249695,797.650513 635.906250,797.555359 
	C638.201416,797.516785 639.897766,797.994751 639.945801,800.706177 
	C639.997131,803.601868 638.261292,804.355225 635.735107,804.313538 
	C632.574341,804.261353 629.411499,804.350220 626.250000,804.322266 
	C623.653076,804.299316 622.240540,805.293579 622.180176,808.121887 
	C622.116821,811.083496 623.655823,811.862976 626.227478,811.780273 
	C628.555176,811.705322 630.886597,811.746094 633.671448,811.745483 
z"/>
<path fill="#000000" opacity="1.000000" stroke="none" 
	d="
M215.000153,812.682251 
	C224.824234,812.684143 234.148590,812.649841 243.472168,812.720032 
	C245.324677,812.733948 247.969879,812.136963 247.920807,815.224121 
	C247.876007,818.042969 245.427887,817.960754 243.454147,817.962463 
	C211.485947,817.990784 179.517700,817.994934 147.549545,817.950012 
	C145.502151,817.947144 142.702255,818.325012 142.899323,815.004761 
	C143.077194,812.007568 145.745407,812.699524 147.566528,812.695435 
	C169.877625,812.645691 192.188904,812.674316 215.000153,812.682251 
z"/>
<path fill="#000000" opacity="1.000000" stroke="none" 
	d="
M419.368652,833.033936 
	C406.492157,833.824219 399.651031,829.293579 397.304016,818.785400 
	C395.717987,811.684204 399.111237,803.617798 405.299377,799.779175 
	C411.828827,795.728821 420.859924,795.943054 426.511780,800.297668 
	C427.981873,801.430481 429.695648,802.548584 428.000916,804.718323 
	C426.548279,806.578064 425.382690,808.208801 422.330750,806.480469 
	C414.292389,801.928284 407.348145,804.334473 405.137543,811.943420 
	C403.792267,816.573914 404.965118,820.562439 408.423676,823.722107 
	C412.036621,827.022827 416.216339,827.043457 420.486542,824.957825 
	C421.381439,824.520813 422.216858,823.963135 423.086243,823.472717 
	C425.289429,822.229736 426.495972,823.849121 427.711975,825.179199 
	C429.276123,826.890015 428.274628,828.212708 426.859039,829.365173 
	C424.764404,831.070557 422.382904,832.224365 419.368652,833.033936 
z"/>
<path fill="#000000" opacity="1.000000" stroke="none" 
	d="
M730.685791,807.348511 
	C729.173706,806.817261 727.979858,806.258484 726.816162,805.642761 
	C721.699097,802.935425 716.284607,803.805176 712.783325,807.915039 
	C709.554138,811.705566 709.322876,817.657654 712.242126,821.843933 
	C715.070007,825.899170 720.479370,827.215759 725.682129,825.088806 
	C726.449036,824.775269 727.231873,824.431152 727.895813,823.947937 
	C730.218384,822.257507 731.976685,823.165588 733.403381,825.155640 
	C735.161560,827.608154 733.002380,828.819641 731.550781,830.013000 
	C721.932312,837.920166 705.873047,831.965881 703.029053,819.483765 
	C701.330017,812.026428 704.107117,804.237854 710.293884,800.098389 
	C716.849243,795.712219 723.785583,795.732239 730.612854,799.432617 
	C735.468994,802.064636 735.443481,803.535400 730.685791,807.348511 
z"/>
<path fill="#000000" opacity="1.000000" stroke="none" 
	d="
M813.007446,818.061035 
	C809.017517,818.050110 805.524414,818.099304 802.035095,818.005310 
	C800.094299,817.953003 797.565247,818.221252 797.458252,815.410095 
	C797.327881,811.984680 800.230469,812.716675 802.210571,812.713318 
	C828.812744,812.668274 855.414978,812.689331 882.017212,812.692383 
	C884.677429,812.692688 887.339600,812.618225 889.997192,812.699219 
	C891.751221,812.752747 894.027649,812.383240 894.092041,815.099609 
	C894.161316,818.019897 891.793762,817.872009 889.819580,817.993469 
	C888.494507,818.075073 887.160400,818.010437 885.830322,818.011353 
	C861.722168,818.028015 837.614014,818.044678 813.007446,818.061035 
z"/>
<path fill="#000000" opacity="1.000000" stroke="none" 
	d="
M356.702057,801.224670 
	C356.315918,804.019470 354.609772,804.317566 352.620239,804.291321 
	C349.790436,804.253967 346.954071,804.406555 344.130646,804.269531 
	C340.844604,804.109985 339.686707,805.911499 339.496033,808.799316 
	C339.273560,812.168152 341.706146,811.938843 343.883392,811.991821 
	C346.379150,812.052612 348.878784,811.998535 351.372070,812.104248 
	C353.641144,812.200500 355.152100,813.140564 355.142853,815.745483 
	C355.133484,818.385986 353.658081,819.228760 351.315369,819.197510 
	C350.982666,819.193054 350.649414,819.206299 350.316772,819.219849 
	C340.208618,819.631897 340.161438,819.629395 339.599792,829.454285 
	C339.463470,831.838989 338.800598,833.266113 336.103119,833.099792 
	C334.080017,832.975037 332.285919,832.564148 332.391418,830.102478 
	C332.797363,820.629761 331.355957,811.162170 332.489319,801.673889 
	C332.840485,798.733643 333.923431,797.588562 336.832855,797.640198 
	C342.158356,797.734802 347.488770,797.683838 352.814545,797.570190 
	C355.191711,797.519470 356.724976,798.185425 356.702057,801.224670 
z"/>
<path fill="#000000" opacity="1.000000" stroke="none" 
	d="
M223.818176,884.775269 
	C223.806473,883.008789 223.831863,881.677124 223.788528,880.347595 
	C223.740021,878.859741 223.653580,876.432007 222.063507,876.791199 
	C219.081116,877.464905 215.687057,874.863770 213.173233,877.819702 
	C211.777817,879.460571 211.796143,881.523865 212.570557,883.500671 
	C213.932953,886.978760 217.321518,884.522461 219.646439,885.641113 
	C219.720810,888.475952 217.943161,889.060059 215.855026,889.259888 
	C212.669250,889.564575 210.158707,888.301636 209.053543,885.332764 
	C207.312973,880.656494 204.869080,882.016602 201.993988,883.828491 
	C202.828384,886.954773 206.414185,884.535583 207.375305,887.442505 
	C205.766815,890.632080 202.693161,889.262268 200.226044,889.014404 
	C197.825027,888.773193 197.963547,886.512939 197.933563,884.685242 
	C197.898087,882.523499 197.893723,880.358826 197.968689,878.198608 
	C198.030197,876.425110 197.556122,874.117981 199.827103,873.529541 
	C202.365662,872.871582 205.221771,872.041565 207.363068,874.522461 
	C206.736984,877.177551 203.758026,875.743286 202.823135,878.145752 
	C205.427689,879.693481 207.557388,880.683594 209.162445,876.670776 
	C210.087418,874.358215 212.209824,872.972229 214.688156,872.991028 
	C220.790298,873.037476 226.889572,873.388184 232.991898,873.539734 
	C234.310410,873.572449 235.535080,873.889404 235.647705,875.216919 
	C236.030716,879.732056 236.855545,884.333679 234.640274,889.003174 
	C230.577972,886.954346 232.486069,883.566772 231.936127,880.950684 
	C231.594818,879.327148 232.649719,876.724121 229.882263,876.673340 
	C227.396606,876.627869 227.602539,878.969910 227.389893,880.792175 
	C227.090622,883.357056 228.078003,886.109985 226.402084,888.523010 
	C223.699432,888.750183 224.055878,886.755859 223.818176,884.775269 
z"/>
<path fill="#000000" opacity="1.000000" stroke="none" 
	d="
M391.156067,873.055420 
	C397.830780,873.133789 404.101318,873.326721 410.371094,873.304626 
	C417.832275,873.278259 419.239563,874.871277 416.931244,881.891907 
	C416.101868,884.414368 419.100098,886.044861 417.975555,888.439514 
	C415.654083,887.820740 415.654083,887.820740 412.059662,883.921021 
	C410.849213,885.308960 412.099915,887.734436 409.565643,888.995789 
	C405.961395,885.396790 409.221130,880.432495 407.291504,876.493042 
	C403.130585,875.554626 403.354980,878.364258 403.251068,881.132019 
	C403.156677,883.647339 403.903595,886.386902 402.121307,888.690796 
	C399.192749,887.941895 399.903564,885.796936 399.835815,884.155457 
	C399.493744,875.869263 399.527130,875.867859 390.101654,877.251099 
	C392.390137,880.789917 400.523102,883.064941 393.466217,888.474060 
	C391.105774,890.283264 387.877686,889.912842 386.136230,886.672058 
	C387.660858,883.985107 390.210480,886.787903 391.947876,884.781250 
	C390.716797,881.633423 384.632874,881.398499 386.168182,876.399292 
	C386.839661,874.212830 388.682953,873.439697 391.156067,873.055420 
z"/>
<path fill="#000000" opacity="1.000000" stroke="none" 
	d="
M342.930206,876.893127 
	C342.275391,879.523865 344.617920,879.467468 345.753632,880.442261 
	C347.381165,881.838989 348.516113,883.345337 347.851379,885.608582 
	C347.158600,887.967468 345.487854,889.601440 343.111542,889.163452 
	C339.275177,888.456299 335.543549,889.164978 331.773560,889.271851 
	C328.249237,889.371826 326.959198,887.700256 327.265198,884.370972 
	C327.417145,882.717529 327.435638,881.052185 327.532898,879.393250 
	C327.651062,877.378479 326.053436,874.714722 328.768188,873.606812 
	C331.527557,872.480652 334.476593,872.678955 337.035706,874.452820 
	C336.163849,877.834534 332.616333,875.060669 331.679138,877.544556 
	C332.135559,879.774658 335.132568,878.705200 335.759766,880.746948 
	C335.530029,883.584656 330.776459,881.024170 331.101501,884.897339 
	C335.038788,887.304016 339.192749,884.832947 343.131348,885.417969 
	C343.951630,883.218018 342.479919,882.811401 341.366455,882.173401 
	C338.426514,880.488831 336.294556,878.153259 338.967133,875.020935 
	C341.276093,872.314880 344.331757,872.127930 346.980988,875.026978 
	C346.308990,877.467651 344.287445,875.925659 342.930206,876.893127 
z"/>
<path fill="#000000" opacity="1.000000" stroke="none" 
	d="
M644.333069,888.336304 
	C642.134583,885.420227 643.241821,882.318542 642.906982,879.395630 
	C642.719727,877.760437 642.354065,876.345215 640.327759,876.464722 
	C638.505737,876.572266 638.434998,878.005859 638.348145,879.376770 
	C638.154358,882.434753 638.780457,885.596680 637.755737,888.447937 
	C635.272217,888.765015 635.094238,887.375244 634.902771,886.036743 
	C633.249390,874.477051 634.413330,873.178284 646.332947,873.038879 
	C650.054993,872.995361 653.813171,872.718811 655.531677,877.058655 
	C658.151917,877.089050 658.165771,872.673279 661.985413,874.285706 
	C659.652405,878.981262 657.930115,883.863831 656.886536,888.841492 
	C654.491943,888.479980 654.468750,887.206360 654.552124,886.071411 
	C654.733643,883.602600 653.762817,881.511292 652.627563,879.459961 
	C651.737549,877.851929 650.875427,876.022522 648.561646,876.470703 
	C646.060242,876.955139 646.663452,879.122559 646.292725,880.856445 
	C645.747620,883.405884 647.909729,886.538940 644.333069,888.336304 
z"/>
<path fill="#000000" opacity="1.000000" stroke="none" 
	d="
M797.098633,875.282471 
	C797.411011,877.261414 797.286926,879.284363 799.587952,879.345276 
	C801.600891,879.398621 801.740723,877.671326 801.879028,876.133850 
	C801.988525,874.916138 802.298401,873.680176 803.777283,873.669983 
	C805.568909,873.657654 805.968079,875.168884 805.849365,876.481567 
	C805.473816,880.635803 807.388245,885.238220 804.221985,888.935913 
	C800.540833,887.849976 803.384216,882.843811 799.698425,882.740479 
	C795.793701,882.631042 798.610168,887.616394 795.443420,888.805542 
	C792.462891,886.766846 794.245605,883.508911 793.727234,880.876831 
	C793.405701,879.244141 794.476746,876.645752 791.731506,876.579163 
	C788.810669,876.508301 789.436768,879.169861 789.176514,881.060303 
	C788.820496,883.645935 790.325256,886.684570 787.345947,888.932068 
	C783.023071,884.920227 789.528381,877.232483 781.542480,874.533630 
	C787.238098,872.705261 792.165710,872.354553 797.098633,875.282471 
z"/>
<path fill="#000000" opacity="1.000000" stroke="none" 
	d="
M835.970459,886.764832 
	C834.350037,882.027771 834.020691,877.735779 836.283936,872.703003 
	C839.326050,876.071289 837.918518,879.178223 838.295227,881.946106 
	C838.501343,883.461060 838.452515,885.238281 840.388977,885.374084 
	C842.732361,885.538330 842.717285,883.528198 842.948853,881.883606 
	C843.313293,879.294922 841.784302,875.760071 843.987793,874.294006 
	C846.798096,872.424255 850.663086,872.986023 854.124878,873.089539 
	C855.448547,873.129150 856.777527,873.295349 858.101440,874.701416 
	C852.948547,878.020752 855.252808,883.847046 853.778381,888.383362 
	C851.090698,888.596130 851.162659,886.833069 851.054565,885.430969 
	C850.901611,883.447205 851.006470,881.445007 850.929565,879.453491 
	C850.876587,878.082703 850.665405,876.613159 848.884094,876.590088 
	C847.144226,876.567505 846.872131,878.094116 846.612671,879.384338 
	C846.418091,880.351990 846.401184,881.367004 846.403931,882.360596 
	C846.411194,884.954407 846.157715,887.490845 843.431274,888.688293 
	C840.732361,889.873413 838.236877,889.368408 835.970459,886.764832 
z"/>
<path fill="#000000" opacity="1.000000" stroke="none" 
	d="
M596.986938,879.460022 
	C597.794189,881.192017 598.427246,880.941711 598.969299,879.658997 
	C599.612915,878.136108 600.017517,876.472412 600.880249,875.091064 
	C602.195068,872.985840 603.996277,872.510742 605.523132,874.877808 
	C606.918945,877.041443 605.599426,886.650269 603.810913,888.801758 
	C601.914246,886.869507 601.914246,886.869507 601.522644,883.987244 
	C598.025452,888.455872 597.619385,888.454346 594.645020,883.527893 
	C593.749817,885.372681 594.793945,887.832947 592.549500,888.796875 
	C590.226318,888.577820 590.359375,886.828674 590.410156,885.159851 
	C590.485535,882.678955 590.559814,880.197144 590.700012,877.719360 
	C590.788269,876.159729 590.116028,874.079956 592.370850,873.585815 
	C594.831177,873.046631 595.271179,875.220520 595.979858,876.861267 
	C596.307556,877.620056 596.570435,878.406738 596.986938,879.460022 
z"/>
<path fill="#000000" opacity="1.000000" stroke="none" 
	d="
M580.666809,880.305664 
	C583.508118,880.170349 582.532837,877.650757 583.364197,876.231628 
	C584.235779,874.743835 584.831238,873.074463 586.928894,873.529480 
	C588.941711,873.966125 588.735107,875.713562 588.479736,877.163025 
	C587.808716,880.971558 589.431458,885.030396 587.466248,888.760925 
	C584.079102,888.497986 585.268311,885.856384 584.493408,883.826294 
	C582.262695,887.230896 579.895081,889.403381 578.026123,883.249939 
	C576.576782,885.240967 577.940735,887.885498 575.557068,888.713684 
	C573.574585,886.816467 572.359680,875.827209 574.113342,874.215942 
	C575.749451,872.712524 577.218384,873.483337 578.160889,875.159485 
	C579.050537,876.741455 579.707336,878.454468 580.666809,880.305664 
z"/>
<path fill="#000000" opacity="1.000000" stroke="none" 
	d="
M274.180725,889.227051 
	C270.966064,887.007935 269.718384,875.973145 272.020325,873.931885 
	C273.538330,872.585693 280.063324,873.239807 280.638458,875.251892 
	C281.677643,878.887695 282.967590,882.836548 281.502716,886.585205 
	C280.354065,889.524658 277.287781,889.295349 274.180725,889.227051 
z"/>
<path fill="#000000" opacity="1.000000" stroke="none" 
	d="
M693.757996,873.177124 
	C697.979675,873.645325 699.867249,875.447632 699.022766,879.559937 
	C698.812195,880.585266 699.454834,881.773376 699.648560,882.896423 
	C700.338501,886.895508 698.385986,888.753296 694.586304,889.176208 
	C691.086365,889.565735 688.655151,888.824402 688.918884,884.548157 
	C689.061340,882.238220 688.993225,879.909485 688.912842,877.592957 
	C688.804688,874.475830 690.162903,872.923523 693.757996,873.177124 
z"/>
<path fill="#000000" opacity="1.000000" stroke="none" 
	d="
M321.821899,879.262085 
	C321.911041,877.826660 321.896973,876.656250 322.036987,875.504517 
	C322.168823,874.419983 322.761414,873.626465 323.977875,873.661438 
	C325.190094,873.696228 325.841034,874.562561 325.854797,875.603394 
	C325.903137,879.256348 325.855896,882.912964 325.732025,886.564331 
	C325.698120,887.563110 325.173492,888.511414 324.083832,888.845520 
	C322.695129,889.271240 321.876434,888.387512 321.235229,887.378479 
	C320.185791,885.726868 319.219391,884.022400 318.134186,882.199463 
	C315.813843,884.000366 318.120972,887.567200 315.113770,888.675537 
	C313.390839,886.568909 312.191589,876.789001 313.476624,874.671387 
	C314.726562,872.611511 316.373932,873.196045 317.552826,874.610901 
	C318.917450,876.248718 319.917145,878.189941 321.096558,879.985474 
	C321.144470,880.058411 321.447601,880.045593 321.563385,879.969116 
	C321.681580,879.891052 321.715302,879.685181 321.821899,879.262085 
z"/>
<path fill="#000000" opacity="1.000000" stroke="none" 
	d="
M250.129074,877.469299 
	C250.108582,880.404297 250.157501,882.905457 250.015900,885.395752 
	C249.931458,886.880676 249.711273,888.572205 247.864822,888.909485 
	C246.288422,889.197327 245.544312,887.869934 244.859726,886.721497 
	C244.015991,885.306030 243.233337,883.854126 242.304565,882.205444 
	C240.185287,884.130249 242.505508,887.497375 239.421265,888.922607 
	C236.364914,886.868896 237.422287,883.575012 237.670898,880.961304 
	C237.909531,878.452515 235.375763,874.588928 239.220688,873.557068 
	C242.414948,872.699890 242.799759,876.834473 244.509689,878.678467 
	C244.716537,878.901611 245.035965,879.020386 245.355453,879.220093 
	C246.984970,877.682251 244.739578,874.007629 248.085724,873.674805 
	C250.135330,873.471069 249.917374,875.596680 250.129074,877.469299 
z"/>
<path fill="#000000" opacity="1.000000" stroke="none" 
	d="
M513.044434,879.240723 
	C513.282471,873.287537 515.001648,871.841736 517.645813,874.935425 
	C518.281555,875.679260 518.649292,876.645935 519.201294,877.469299 
	C519.721924,878.245850 520.322876,878.968628 520.911804,879.745850 
	C522.954895,878.036926 520.510925,874.662537 524.356384,873.580139 
	C526.468079,878.000854 526.143982,882.714539 525.402222,887.242859 
	C525.000977,889.692200 522.942383,889.585510 521.377014,887.703857 
	C520.026062,886.079956 519.666687,883.754150 517.774231,882.450867 
	C515.656250,884.074463 517.766541,887.466125 514.961487,888.989868 
	C511.900848,886.262268 513.350891,882.778870 513.044434,879.240723 
z"/>
<path fill="#000000" opacity="1.000000" stroke="none" 
	d="
M497.822510,882.564636 
	C496.609375,884.607056 498.422638,887.516113 495.477783,888.790527 
	C493.465546,886.224182 492.190613,876.151733 493.764557,874.264099 
	C495.246948,872.486328 496.708069,873.390198 497.958618,874.735107 
	C499.290527,876.167725 499.690765,878.331238 501.503265,879.418640 
	C503.282410,877.940430 501.801605,875.381287 503.462158,873.935364 
	C505.305664,873.427979 506.001495,874.511353 506.035828,875.997253 
	C506.112671,879.320007 506.060272,882.648010 505.964691,885.971191 
	C505.931030,887.141602 505.613983,888.387329 504.302643,888.779114 
	C502.657227,889.270691 501.972717,887.952454 501.196960,886.869019 
	C500.148132,885.404114 499.695892,883.516724 497.822510,882.564636 
z"/>
<path fill="#000000" opacity="1.000000" stroke="none" 
	d="
M750.998352,888.527100 
	C748.715637,884.228271 750.086670,879.873962 749.748901,875.641235 
	C749.663940,874.576599 750.208740,873.704773 751.410400,873.546082 
	C752.505127,873.401428 753.369507,873.902954 753.953796,874.771790 
	C754.960999,876.269470 755.889038,877.820312 756.939514,879.490723 
	C759.246765,878.050232 757.003540,874.596069 759.825439,873.709106 
	C762.137268,875.730896 763.164551,886.159546 761.214233,888.186401 
	C759.769226,889.688293 758.475891,889.014343 757.518616,887.628235 
	C756.335388,885.914978 755.332153,884.077332 754.190857,882.193909 
	C752.096558,884.173584 754.789001,887.704773 750.998352,888.527100 
z"/>
<path fill="#000000" opacity="1.000000" stroke="none" 
	d="
M173.685608,883.327026 
	C173.690933,885.383850 173.930161,887.244080 172.602921,888.755554 
	C170.311600,889.137573 170.030792,887.517151 169.992584,886.024231 
	C169.911896,882.869995 170.006851,879.709900 170.085373,876.553650 
	C170.114380,875.386963 170.220642,874.103516 171.603317,873.713562 
	C173.176727,873.269836 174.047180,874.336304 174.805405,875.503601 
	C175.850494,877.112427 176.912003,878.710571 178.074966,880.478149 
	C179.416092,878.154175 177.555954,875.419556 179.838272,873.787842 
	C181.828476,873.705566 182.117279,875.023438 182.139786,876.409180 
	C182.191040,879.567566 182.167542,882.727600 182.135437,885.886597 
	C182.123276,887.083313 181.921478,888.364929 180.647659,888.795044 
	C179.088821,889.321167 178.246506,888.155945 177.460709,887.022339 
	C176.354294,885.426147 176.065887,883.243408 174.076599,882.289551 
	C174.014420,882.259766 173.791183,882.452576 173.721207,882.583374 
	C173.648804,882.718872 173.671768,882.905334 173.685608,883.327026 
z"/>
<path fill="#000000" opacity="1.000000" stroke="none" 
	d="
M442.473236,887.985107 
	C439.901428,889.894348 438.993683,888.026978 438.045013,886.489075 
	C437.039368,884.858887 436.165619,883.147400 435.125214,881.275085 
	C433.266479,883.695679 435.601715,887.013611 432.700439,888.687988 
	C430.929657,886.405457 429.840027,876.498596 431.236786,874.638550 
	C432.596466,872.828064 434.018250,873.322937 435.314362,874.862915 
	C436.353973,876.098145 436.487885,878.003906 438.165619,878.782593 
	C438.451935,878.567810 438.745392,878.420593 438.939606,878.189941 
	C440.079224,876.836243 438.199951,873.367188 441.390594,873.749695 
	C444.044678,874.067932 443.181549,876.916870 443.188721,878.745911 
	C443.200317,881.710815 442.877136,884.676941 442.473236,887.985107 
z"/>
<path fill="#000000" opacity="1.000000" stroke="none" 
	d="
M184.494904,887.920410 
	C184.206406,883.930908 184.091553,880.283997 184.099548,876.637390 
	C184.102448,875.314880 184.254730,873.850464 186.008652,873.603577 
	C187.370438,873.411804 188.123032,874.363342 188.744568,875.388367 
	C189.763428,877.068726 190.755280,878.765442 191.870941,880.644592 
	C193.818787,878.533508 191.439484,875.297913 194.231903,873.865173 
	C196.184433,875.802979 197.193237,886.323181 195.576950,888.071106 
	C194.084641,889.684937 192.961990,888.640808 191.904114,887.416016 
	C190.643738,885.956848 190.621277,883.617432 188.585526,882.640198 
	C187.300034,887.865601 187.300034,887.865601 184.494904,887.920410 
z"/>
<path fill="#000000" opacity="1.000000" stroke="none" 
	d="
M881.617615,883.124329 
	C881.736389,885.170227 883.894287,886.510742 882.463867,888.602295 
	C879.035767,889.284180 879.569519,885.049255 877.236938,884.343567 
	C875.481934,885.207153 877.016541,888.131470 874.642090,888.616455 
	C873.026611,886.770447 871.834290,875.973999 873.308044,874.395264 
	C875.315247,872.245178 877.940979,873.033020 880.272156,873.737854 
	C882.565491,874.431213 883.864380,876.191772 883.299316,878.693665 
	C882.979858,880.108032 882.200439,881.418579 881.617615,883.124329 
z"/>
<path fill="#000000" opacity="1.000000" stroke="none" 
	d="
M633.046631,886.334717 
	C631.902527,889.425964 630.359619,889.681702 628.716614,887.344971 
	C627.422668,885.504883 626.429321,883.453491 625.198486,881.315308 
	C623.276489,883.668152 625.684937,887.043152 622.715271,888.656921 
	C621.103699,886.599487 619.943176,876.308228 621.222168,874.606018 
	C622.575073,872.805481 624.116821,873.180603 625.268494,874.842957 
	C626.561462,876.709290 627.647095,878.719360 629.034363,881.017151 
	C629.905518,878.493164 628.978027,876.210510 630.143372,874.293579 
	C630.293945,874.045776 630.660645,873.929443 631.608032,873.299622 
	C634.216614,877.352783 632.497803,881.840820 633.046631,886.334717 
z"/>
<path fill="#000000" opacity="1.000000" stroke="none" 
	d="
M481.008545,885.417847 
	C480.784210,887.197510 480.475647,888.472046 479.018463,888.752075 
	C475.667053,887.971252 478.426758,882.800232 474.699768,882.878235 
	C471.280273,882.949768 473.391937,887.394287 471.005463,888.590027 
	C467.500885,885.295166 467.922607,875.404602 471.594299,873.756958 
	C472.595825,874.421997 472.497070,875.455017 472.470215,876.447021 
	C472.433502,877.801636 472.906219,878.734985 474.393188,878.810547 
	C475.773682,878.880798 476.495758,878.120728 476.881897,876.845154 
	C477.286530,875.508362 477.177399,873.376038 479.339264,873.829712 
	C481.525818,874.288513 480.967285,876.404236 481.002228,877.998901 
	C481.053284,880.329102 481.024231,882.661011 481.008545,885.417847 
z"/>
<path fill="#000000" opacity="1.000000" stroke="none" 
	d="
M156.334381,886.469482 
	C155.640915,884.748901 154.922943,883.371033 154.813782,881.946594 
	C154.492020,877.748474 155.834808,874.291077 160.353302,873.280579 
	C164.442459,872.366028 166.938354,874.617859 168.269623,878.288574 
	C169.662750,882.129944 167.971466,887.109680 164.651947,888.620483 
	C161.602524,890.008362 158.861313,889.232361 156.334381,886.469482 
M158.403625,879.981140 
	C158.714447,884.591492 160.703644,886.836304 163.094620,885.213684 
	C164.983917,883.931641 164.943268,881.830444 164.761993,879.816833 
	C164.615738,878.191895 163.787903,876.916565 162.160126,876.570496 
	C160.079178,876.128174 159.274597,877.700500 158.403625,879.981140 
z"/>
<path fill="#000000" opacity="1.000000" stroke="none" 
	d="
M740.776367,886.851196 
	C738.697327,888.913391 736.453918,889.362244 734.048096,889.150452 
	C733.250183,889.080200 732.341980,888.906067 731.721069,888.454102 
	C730.277527,887.402954 730.177185,875.234924 731.503479,874.003357 
	C733.855103,871.819519 740.755493,874.058777 742.078308,877.560547 
	C743.255310,880.676453 743.214294,883.770264 740.776367,886.851196 
M738.384155,883.576965 
	C739.292297,880.383057 739.386963,877.611328 735.234558,876.505432 
	C733.893982,878.917603 734.068726,880.925598 734.223999,882.855225 
	C734.464600,885.846680 735.832275,886.273071 738.384155,883.576965 
z"/>
<path fill="#000000" opacity="1.000000" stroke="none" 
	d="
M560.762329,887.391602 
	C559.872314,885.952087 558.951660,884.849487 558.708557,883.613586 
	C557.922180,879.615601 558.334900,875.822388 562.457275,873.753845 
	C565.493042,872.230652 568.303040,872.986450 570.483276,875.645264 
	C572.994690,878.708008 572.970276,883.653564 570.319336,886.729736 
	C567.575989,889.913147 564.407593,890.053833 560.762329,887.391602 
M568.630676,880.647034 
	C568.169006,878.453552 567.522278,876.085632 564.710266,876.562378 
	C562.312378,876.968872 562.134094,879.302551 562.160400,881.338806 
	C562.184875,883.235901 562.577515,885.247009 564.800720,885.526672 
	C567.676819,885.888489 568.262085,883.623474 568.630676,880.647034 
z"/>
<path fill="#000000" opacity="1.000000" stroke="none" 
	d="
M452.379700,884.670776 
	C452.109955,883.312073 451.728027,882.255859 451.290131,881.044800 
	C453.237732,879.462769 455.225494,879.460815 456.375122,881.500671 
	C457.710938,883.870911 457.190613,886.637512 454.930206,888.149658 
	C451.808777,890.237732 448.567291,889.760559 446.075317,886.759216 
	C443.194031,883.289062 443.626404,877.125977 447.011536,874.624329 
	C450.096283,872.344666 453.195526,871.868652 456.699524,876.608887 
	C451.550537,876.176086 447.263397,876.526917 448.296356,882.469910 
	C448.661011,884.567993 449.481598,886.467163 452.379700,884.670776 
z"/>
<path fill="#000000" opacity="1.000000" stroke="none" 
	d="
M535.094482,884.794189 
	C535.101562,883.168884 533.222107,882.604187 533.774292,880.715149 
	C535.417114,879.511353 537.606506,879.170471 538.683777,881.178162 
	C539.830322,883.314880 539.940247,886.076965 537.820129,888.053040 
	C535.522522,890.194580 530.655701,889.486267 528.398926,886.838989 
	C525.728821,883.706909 526.127380,877.016479 529.391052,874.613770 
	C532.298889,872.473145 535.422485,871.871521 538.113159,875.172302 
	C538.270508,875.365356 538.133545,875.798340 538.133545,876.562073 
	C534.437988,876.627563 529.672791,875.829407 530.414307,881.929443 
	C530.708679,884.350708 531.779724,886.506775 535.094482,884.794189 
z"/>
<path fill="#000000" opacity="1.000000" stroke="none" 
	d="
M254.244171,874.115479 
	C257.733215,872.422302 260.440765,872.611877 263.212006,876.318481 
	C258.706573,876.828247 253.897446,876.328735 254.610596,882.193604 
	C254.877228,884.386414 256.227417,886.193298 258.892365,885.466125 
	C260.165588,883.408325 257.375549,882.833435 257.937256,881.031982 
	C258.127014,880.855103 258.424438,880.358093 258.833557,880.236267 
	C260.295807,879.801086 261.835175,879.519897 262.929810,880.978699 
	C264.892578,883.594299 262.759064,888.669312 259.471405,889.181458 
	C256.185577,889.693298 253.365814,888.670349 251.860138,885.668945 
	C249.773331,881.509094 250.448181,877.604736 254.244171,874.115479 
z"/>
<path fill="#000000" opacity="1.000000" stroke="none" 
	d="
M764.991150,887.041870 
	C762.290649,883.425049 762.225159,879.902893 764.218567,876.458618 
	C766.680237,872.205322 771.459351,872.024170 774.830750,876.389221 
	C770.988403,876.778748 766.106995,875.984924 766.794250,881.953552 
	C767.049316,884.168396 768.032654,886.113953 770.802856,885.478149 
	C772.265747,883.542297 769.501587,882.760742 770.263245,880.828186 
	C771.954590,879.757202 774.240417,878.848938 775.143738,881.730408 
	C775.943054,884.280396 776.287842,887.581055 772.673767,888.858276 
	C770.005493,889.801331 767.423767,889.374268 764.991150,887.041870 
z"/>
<path fill="#000000" opacity="1.000000" stroke="none" 
	d="
M610.816406,883.184387 
	C611.534485,884.807617 612.294861,885.950623 613.948914,885.271973 
	C615.153381,884.777710 615.426941,883.617126 615.616516,882.416016 
	C616.064453,879.576111 614.843018,876.508911 616.578247,873.749451 
	C619.144592,875.381348 620.174683,881.795410 618.673035,885.663269 
	C617.525085,888.620239 615.234924,889.635132 612.292480,889.164917 
	C608.219238,888.514160 606.741821,885.559631 607.051636,881.923828 
	C607.289001,879.139465 604.986755,874.106750 609.121948,874.132690 
	C612.526001,874.153992 610.265747,879.099060 610.606750,881.845398 
	C610.647583,882.174561 610.678040,882.505066 610.816406,883.184387 
z"/>
<path fill="#000000" opacity="1.000000" stroke="none" 
	d="
M288.291870,889.177002 
	C283.886475,886.787109 281.345276,878.417114 283.497101,874.772827 
	C283.972687,873.967346 284.602661,873.501099 285.510040,873.714050 
	C286.394714,873.921692 286.937988,874.598694 286.981750,875.507080 
	C287.093719,877.831909 287.103394,880.161865 287.223602,882.486145 
	C287.294739,883.861877 287.583588,885.348633 289.280487,885.420105 
	C291.284088,885.504456 291.510010,883.896484 291.716583,882.329285 
	C292.089600,879.499817 290.885254,876.434387 293.197723,873.023254 
	C296.730896,876.938232 295.183441,881.124939 294.867279,884.814209 
	C294.589844,888.051392 292.021240,889.505005 288.291870,889.177002 
z"/>
<path fill="#000000" opacity="1.000000" stroke="none" 
	d="
M811.177612,877.365967 
	C811.630188,880.100830 814.990417,878.428589 815.669006,880.871826 
	C815.364563,883.560303 811.245972,881.289368 811.031494,884.345642 
	C811.775391,887.080688 815.774414,884.500061 816.546021,887.870056 
	C813.907349,890.095459 810.931824,889.669189 808.180725,888.192261 
	C806.553101,887.318481 806.236816,875.414062 807.835144,874.278687 
	C810.590820,872.321167 813.560913,872.406433 816.377930,874.515625 
	C815.496033,877.473328 812.574341,875.534058 811.177612,877.365967 
z"/>
<path fill="#000000" opacity="1.000000" stroke="none" 
	d="
M701.275879,875.132812 
	C702.746826,873.065125 703.907410,873.039734 704.410278,875.320007 
	C704.653564,876.423157 704.267395,877.650696 704.390869,878.797668 
	C704.652222,881.226685 703.267151,885.127869 707.076477,885.148621 
	C710.481812,885.167297 709.334473,881.424988 709.623230,879.111633 
	C709.841858,877.360291 709.099426,875.432007 710.510437,873.934692 
	C710.746643,873.877319 710.965271,873.750488 711.057678,873.812317 
	C715.611694,876.856506 713.018494,881.189514 712.669006,884.852539 
	C712.373291,887.952087 709.708313,889.607910 706.397522,889.171814 
	C702.228394,888.622681 701.125183,885.590576 701.028076,881.966736 
	C700.970215,879.809937 701.105103,877.647949 701.275879,875.132812 
z"/>
<path fill="#000000" opacity="1.000000" stroke="none" 
	d="
M860.639038,887.295471 
	C858.047913,880.806519 858.364075,875.949829 861.309021,873.604980 
	C863.404480,875.085815 862.137634,877.243591 862.366150,879.070740 
	C862.657043,881.396790 861.508179,885.006470 864.858582,885.154541 
	C868.349548,885.308899 867.410034,881.677185 867.653198,879.352173 
	C867.849121,877.479004 867.123352,875.421509 868.562805,873.704041 
	C871.297058,875.546387 872.112244,883.238342 869.868713,886.501038 
	C867.403259,890.086487 864.260986,890.175720 860.639038,887.295471 
z"/>
<path fill="#000000" opacity="1.000000" stroke="none" 
	d="
M424.772644,876.630615 
	C423.034424,878.247864 423.681427,879.053162 425.430725,879.379333 
	C426.653076,879.607178 428.191986,879.096558 428.632996,880.929626 
	C427.890564,883.418640 424.168945,881.283020 423.659851,884.249695 
	C424.379486,887.085876 428.270599,884.550171 429.221252,887.674255 
	C426.720367,890.215027 423.730072,889.561218 420.980804,888.291260 
	C419.337067,887.531982 419.020691,874.956665 420.650391,874.097778 
	C423.581604,872.553040 426.726654,872.134460 429.468475,874.766174 
	C428.480255,877.377991 426.462128,876.044434 424.772644,876.630615 
z"/>
<path fill="#000000" opacity="1.000000" stroke="none" 
	d="
M482.727142,882.903931 
	C482.724457,881.274414 482.621735,880.107300 482.737701,878.962341 
	C482.926788,877.095581 481.827362,874.612244 484.146393,873.613586 
	C486.723724,872.503601 489.446014,872.693970 491.865387,874.308105 
	C491.040619,877.338867 487.817108,875.409363 486.949280,877.625061 
	C487.293701,879.978638 490.999603,878.239319 491.107788,880.980896 
	C490.494385,883.252258 487.046570,881.440430 486.590881,884.198486 
	C487.069427,887.043579 491.154205,884.740051 491.853607,887.804260 
	C489.876404,890.204529 487.102509,889.440552 484.756989,888.850403 
	C481.950195,888.144104 482.898865,885.412292 482.727142,882.903931 
z"/>
<path fill="#000000" opacity="1.000000" stroke="none" 
	d="
M892.006348,885.963867 
	C893.572754,886.594666 894.633484,887.528198 893.172119,888.538940 
	C891.305664,889.829712 888.980713,889.393677 886.883240,888.962769 
	C884.774353,888.529419 884.785889,886.666016 884.768433,884.973816 
	C884.746094,882.812805 884.654236,880.645752 884.779602,878.492126 
	C884.887390,876.639404 883.937256,874.100525 886.659424,873.445740 
	C889.100403,872.858521 891.778503,872.430725 893.828003,874.556458 
	C892.926270,877.571594 889.328308,875.119446 888.567993,877.735596 
	C888.882324,880.633057 893.101990,877.899048 893.209045,881.114685 
	C892.637817,883.418030 888.375916,881.194214 888.741150,884.496033 
	C888.897888,885.913208 890.525940,885.685608 892.006348,885.963867 
z"/>
<path fill="#000000" opacity="1.000000" stroke="none" 
	d="
M825.964722,888.565002 
	C822.830078,884.240601 823.894226,879.563354 824.656738,875.147583 
	C825.159119,872.238159 830.434998,872.320129 833.577271,875.090942 
	C832.810486,877.755310 829.182190,875.075867 828.428772,877.898926 
	C828.801758,880.767395 832.775146,878.211914 833.322632,881.684753 
	C829.468628,882.192505 828.354004,885.809814 825.964722,888.565002 
z"/>
<path fill="#000000" opacity="1.000000" stroke="none" 
	d="
M349.042847,878.585510 
	C348.640564,875.339355 350.236603,873.836853 352.765106,873.218323 
	C355.016663,872.667480 356.958954,873.105530 357.922272,875.292175 
	C356.879181,878.066956 354.186584,875.350037 352.889618,877.701721 
	C354.946533,880.799866 362.878326,882.689941 356.510101,888.317444 
	C354.228149,890.333984 350.965454,889.903625 349.036957,886.752747 
	C350.433350,883.995483 353.505768,887.181641 354.903625,884.434692 
	C353.836670,881.867126 349.843536,882.014343 349.042847,878.585510 
z"/>
<path fill="#000000" opacity="1.000000" stroke="none" 
	d="
M301.356537,876.905029 
	C300.679016,879.519470 302.993866,879.485901 304.157288,880.407410 
	C305.856140,881.752930 306.955536,883.261047 306.340942,885.513611 
	C305.758972,887.646484 304.322388,888.947144 302.127838,889.176086 
	C299.764191,889.422607 297.651489,889.009827 296.615875,886.677307 
	C298.293671,884.197571 300.888458,886.946777 302.334869,884.747314 
	C302.563232,882.577637 300.430084,882.467163 299.208344,881.594421 
	C297.425140,880.320801 296.412659,878.772461 296.904480,876.530212 
	C297.359985,874.453430 298.969635,873.564758 300.819855,873.179565 
	C303.120361,872.700562 304.919067,873.392334 305.852600,875.443420 
	C304.592346,877.780334 302.833710,876.034485 301.356537,876.905029 
z"/>
<path fill="#000000" opacity="1.000000" stroke="none" 
	d="
M557.243286,885.811401 
	C557.702148,889.429382 555.128540,889.183838 553.092102,889.189209 
	C549.119202,889.199585 546.064209,885.502563 546.081482,881.015259 
	C546.098572,876.574646 549.341003,872.934387 553.330566,873.075989 
	C555.119141,873.139465 557.025024,873.388977 557.547363,876.277527 
	C553.828552,876.586609 549.240417,876.050232 550.114502,882.113403 
	C550.789490,886.795105 554.313171,885.193115 557.243286,885.811401 
z"/>
<path fill="#000000" opacity="1.000000" stroke="none" 
	d="
M147.512802,888.978638 
	C142.574738,885.544800 141.318146,880.816406 143.814285,876.417358 
	C146.247375,872.129456 151.060394,871.911865 154.132706,876.455688 
	C150.244568,876.681458 145.523941,875.997314 146.341049,882.044189 
	C146.732620,884.941956 147.594772,885.334839 153.571411,885.585510 
	C152.870438,889.131104 152.870438,889.131104 147.512802,888.978638 
z"/>
<path fill="#000000" opacity="1.000000" stroke="none" 
	d="
M458.137665,873.596313 
	C461.561554,872.970276 464.661133,872.456665 468.367249,874.622803 
	C461.548920,877.611328 466.093628,884.454102 462.382019,889.795776 
	C459.797028,884.052368 461.913666,877.899841 458.137665,873.596313 
z"/>
<path fill="#000000" opacity="1.000000" stroke="none" 
	d="
M724.979919,889.216492 
	C721.711914,889.351807 720.272644,888.232849 720.452515,885.103760 
	C720.594849,882.626709 720.196228,880.123291 720.180847,877.630676 
	C720.171204,876.060425 719.722595,873.754395 722.092285,873.777954 
	C724.402527,873.800781 723.852661,876.130371 724.062927,877.688293 
	C724.085022,877.851990 724.083679,878.022461 724.067261,878.187195 
	C723.654358,882.343323 723.756226,886.209900 729.203613,886.764954 
	C728.863281,889.689636 726.870117,889.009155 724.979919,889.216492 
z"/>
<path fill="#000000" opacity="1.000000" stroke="none" 
	d="
M743.949646,879.250427 
	C744.224731,876.984558 743.418884,874.763916 745.764954,873.667236 
	C748.780334,876.670410 748.886475,884.792542 745.791016,888.857727 
	C742.881653,886.175293 744.344604,882.716858 743.949646,879.250427 
z"/>
<path fill="#000000" opacity="1.000000" stroke="none" 
	d="
M311.202942,886.846069 
	C309.684265,889.695862 308.294800,888.940308 308.061951,886.753357 
	C307.679504,883.161133 307.883331,879.502380 307.917175,875.872375 
	C307.926819,874.841431 308.362854,873.869568 309.588470,873.793396 
	C311.148956,873.696472 311.618713,874.934631 311.616028,876.077820 
	C311.607880,879.537109 311.403015,882.995850 311.202942,886.846069 
z"/>
<path fill="#000000" opacity="1.000000" stroke="none" 
	d="
M718.306274,883.013123 
	C718.005981,885.264526 719.090210,887.546875 715.968628,888.913574 
	C713.937988,884.275330 714.935974,879.537537 715.034241,874.920288 
	C715.052673,874.055908 715.847900,873.490601 716.812744,873.567871 
	C718.042725,873.666443 718.541870,874.558716 718.540283,875.614197 
	C718.536743,877.933716 718.393250,880.252991 718.306274,883.013123 
z"/>
<path fill="#000000" opacity="1.000000" stroke="none" 
	d="
M372.791199,873.427124 
	C374.658539,879.005066 374.612366,884.329041 372.957642,890.331238 
	C370.026947,886.136719 370.026581,876.708435 372.791199,873.427124 
z"/>
<path fill="#000000" opacity="1.000000" stroke="none" 
	d="
M507.605225,877.140259 
	C507.681946,875.478455 507.316864,873.823730 509.263367,873.743896 
	C511.127747,873.667480 511.346466,875.235352 511.224487,876.551941 
	C510.848938,880.605164 512.429504,884.958313 509.494507,889.692627 
	C506.560669,885.313416 508.183075,881.241394 507.605225,877.140259 
z"/>
<path fill="#000000" opacity="1.000000" stroke="none" 
	d="
M676.428528,878.608398 
	C676.732727,882.554382 676.991089,886.078125 674.878418,889.367859 
	C673.245972,884.084473 673.240601,878.802856 674.368469,872.753418 
	C676.920715,874.610229 676.176880,876.548828 676.428528,878.608398 
z"/>
</svg>